<?xml version="1.0" encoding="UTF-8"?>
<svg width="1440px" height="810px" viewBox="0 0 1440 810" xmlns="http://www.w3.org/2000/svg" xmlns:xlink="http://www.w3.org/1999/xlink" version="1.1">
 <!-- Generated by Pixelmator Pro 2.1.3 -->
 <path id="Trazado" d="M637.078 328.926 C637.078 328.926 637.023 328.973 636.988 329.008 Z M637.078 328.926" fill="#0cc0df" fill-opacity="1" stroke="none"/>
 <path id="Trazado-1" d="M1007.496 471.762 C1006.848 471.281 1006.25 470.855 1006.262 469.922 1006.273 469.207 1005.941 468.699 1005.191 468.504 1001.555 467.539 997.867 466.699 994.301 465.535 992.031 464.797 989.336 464.719 987.863 462.324 986.219 461.664 984.617 460.457 982.797 461.887 982.281 462.289 981.727 462.738 981.047 462.598 978.113 462.012 975.188 461.367 972.262 460.746 970.813 459.18 968.809 459.281 966.934 458.949 964.504 458.523 962.164 457.625 959.645 457.762 959.285 457.785 958.793 457.648 958.563 457.395 957.547 456.277 956.191 456.496 954.922 456.277 951.848 455.746 948.797 454.988 945.668 454.816 945.16 454.793 944.605 454.676 944.18 454.426 942.535 453.398 940.668 453.539 938.875 453.34 937.836 453.227 936.789 453.25 935.754 453.113 931.906 452.594 928.176 451.488 924.309 451.109 923.977 451.074 923.492 450.992 923.734 450.199 928.328 450.508 932.988 450.258 937.605 451.145 938.492 451.316 939.598 451.648 940.301 451.305 941.719 450.602 942.973 451.039 944.309 451.234 945.332 451.383 946.379 451.648 947.348 451.063 947.52 450.957 947.668 450.637 947.648 450.43 947.625 450.246 947.313 449.898 947.211 449.934 945.793 450.348 944.652 450.324 944.191 448.574 944.008 447.895 943.352 447.586 942.684 447.48 941.27 447.273 939.84 447.172 938.426 446.977 937.066 446.777 935.949 447.711 934.625 447.723 933.07 447.723 932.816 445.883 931.48 445.605 931.227 445.547 930.965 445.5 930.723 445.41 928.5 444.578 926.207 444.234 923.848 444.523 922.926 444.637 922.039 444.66 921.164 444.246 920.188 443.773 919.141 443.879 918.09 443.934 917.184 443.992 916.262 444.016 915.375 443.867 912.426 443.348 909.504 442.75 906.566 442.184 905.16 441.922 903.734 441.461 902.328 441.504 899.43 441.609 896.746 440.238 893.855 440.41 893.637 440.422 893.359 440.227 893.188 440.043 893.027 439.871 892.887 439.605 892.887 439.375 892.887 438.949 893.141 438.641 893.613 438.672 894.133 438.707 894.66 438.73 895.156 438.879 898.313 439.801 901.582 439.547 904.793 439.895 908.66 440.32 912.609 440.066 916.492 440.434 919.047 440.676 921.625 440.723 924.172 441.527 925.898 442.07 927.543 442.828 929.293 443.324 930.297 443.613 931.219 444.258 932.289 444.129 934.027 443.91 935.648 444.418 937.309 444.719 939.113 445.039 940.957 445.363 942.742 445.039 944.355 444.742 945.863 445.398 947.348 445.246 949.086 445.074 950.699 445.352 952.379 445.559 955.477 445.938 958.48 447.066 961.648 446.746 964.758 446.422 967.82 446.664 970.883 447.184 973.137 447.563 975.246 447.02 977.469 445.813 974.863 444.086 972.309 443.176 969.637 442.566 965.184 441.563 960.727 440.586 956.27 439.617 955.117 439.363 953.68 439.316 953.035 438.422 952.035 437.016 950.582 436.957 949.258 436.66 946.207 435.957 943.168 435.23 940.23 434.137 939.137 433.734 937.977 433.445 936.824 433.285 933.863 432.895 930.93 432.512 928.258 431.039 928.063 430.938 927.715 430.855 927.555 430.961 925.539 432.238 924.137 430.535 922.512 429.934 922.121 429.785 922.086 429.359 922.18 428.945 922.246 428.633 922.398 428.52 922.707 428.449 925.07 427.852 927.406 427.906 929.523 429.129 930.801 429.855 932.137 430.359 933.543 430.535 935.742 430.809 937.965 430.867 940.059 431.707 940.383 431.836 940.832 431.719 941.211 431.629 941.395 431.582 941.66 431.305 941.648 431.168 941.625 430.961 941.418 430.648 941.234 430.59 940.613 430.406 939.969 430.336 939.336 430.211 938.379 430.027 937.676 429.441 937.215 428.621 937.066 428.348 937.145 427.887 937.262 427.551 937.32 427.391 937.734 427.184 937.883 427.242 939.531 427.875 941.258 427.09 942.902 427.539 943.098 427.598 943.445 427.438 943.57 427.262 943.664 427.125 943.57 426.758 943.445 426.605 943.043 426.137 941.938 426.156 942.063 425.457 942.258 424.43 943.293 424.813 944.02 424.824 945.055 424.836 946.07 425.031 947.105 425.215 949.973 425.719 952.875 426.02 955.879 424.109 953.875 423.797 952.23 423.543 950.582 423.281 949.813 423.152 949.039 423.016 948.281 422.832 947.648 422.68 947.023 422.484 946.426 422.23 945.527 421.863 947.602 421.125 946.207 420.598 945.273 420.238 944.516 419.422 943.73 418.73 943.5 418.523 943.316 418.008 943.41 417.754 943.523 417.465 943.949 417.199 944.297 417.109 944.781 416.98 945.367 416.867 945.816 417.027 947.727 417.66 949.672 417.109 951.598 417.34 952.563 417.453 953.426 417.164 953.508 415.922 953.543 415.277 954.023 415.035 954.578 415.012 955.754 414.957 956.926 414.875 958.09 414.957 960.691 415.152 963.281 415.461 965.883 415.68 966.887 415.762 967.934 416.082 968.879 415.371 966.023 412.906 966.023 412.883 963.074 412.191 962.258 412.008 961.613 411.652 961.129 411.02 960.992 410.832 960.887 410.488 960.969 410.305 961.047 410.133 961.395 409.957 961.602 409.98 963.008 410.086 964.297 410.742 965.793 410.613 967.852 410.453 969.914 410.523 971.988 410.914 973.113 411.133 974.324 410.984 975.5 410.938 976.074 410.914 976.477 410.477 976.582 409.957 976.719 409.199 976.199 408.715 975.543 408.555 974.797 408.371 973.988 408.414 973.23 408.277 972.852 408.207 972.621 407.91 972.563 407.461 972.379 406.008 972.758 405.699 974.336 405.41 975.902 405.109 977.445 405.156 979 405.32 980.324 405.457 981.508 405.215 982.566 404.387 982.371 404.098 982.293 403.82 982.105 403.707 979.793 402.277 976.73 402.59 974.691 400.496 974.625 400.426 974.426 400.438 974.313 400.461 971.859 401.012 969.766 399.598 967.484 399.172 965.148 398.734 962.984 397.559 960.91 396.281 959.645 395.508 959.805 394.254 959.527 393.219 959.344 392.516 960.348 391.961 961.082 391.688 962.086 391.316 962.844 390.617 963.684 390.004 965.227 388.887 965.422 388.43 964.48 387.094 964.109 386.563 963.512 386.172 963.227 385.605 962.086 383.375 960.715 381.449 958.172 380.633 957.883 380.543 957.895 379.906 958.344 379.723 958.816 379.527 959.367 379.504 959.504 378.871 958.977 378.191 958.09 378.355 957.41 378.008 956.672 377.652 955.672 377.926 954.566 376.902 957.918 376.832 960.738 376.824 963.547 376.707 965.48 376.625 967.391 376.328 968.902 378.066 969.5 378.758 970.363 378.262 971.102 378.066 971.309 378.008 971.617 377.73 971.617 377.57 971.605 377.227 971.516 376.672 971.273 376.559 969.051 375.5 966.816 374.438 964.527 373.531 963.41 373.094 962.477 372.227 960.922 372.758 959.875 373.113 958.457 372.344 957.191 372.172 956.695 372.102 956.063 372.113 955.672 372.379 953.762 373.645 951.816 373.52 949.707 372.93 948.742 372.664 947.637 372.816 946.598 372.883 945.758 372.941 945.078 372.633 944.367 372.309 943.711 372.008 943.305 371.605 943.398 370.836 943.445 370.445 943.535 370.031 943.445 369.672 943.352 369.34 943.098 368.957 942.813 368.797 942.305 368.52 942.188 369.039 942.063 369.375 941.586 370.691 940.742 371.234 939.531 370.996 936.895 370.469 934.406 369.156 931.574 369.594 931.391 368.105 931.875 367.035 932.91 366.402 934.129 365.652 935.535 365.102 936.973 365.469 937.871 365.699 938.746 365.863 939.656 365.84 943.938 365.723 948.117 366.77 952.355 367.07 953.23 367.141 953.828 367.371 954.199 368.188 954.441 368.695 954.934 369.039 955.406 368.531 956.465 367.402 957.824 367.59 959.066 367.75 962.176 368.141 965.32 367.75 968.418 368.395 969.547 368.637 970.754 368.508 971.93 368.5 972.598 368.5 973.242 368.289 973.508 367.578 973.793 366.805 973.793 365.988 973.184 365.391 972.457 364.664 971.777 363.801 970.617 363.742 969.559 363.695 968.543 363.617 967.785 362.707 967.426 362.281 966.875 362.27 966.344 362.43 965.457 362.707 964.516 362.844 963.641 362.559 961.855 361.957 960.023 362.176 958.215 362.086 957.262 362.039 956.434 362.027 955.82 362.949 955.316 363.707 954.473 363.652 953.691 363.547 953.219 363.477 952.563 363.695 952.355 363.086 952.266 362.789 952.484 362.363 952.621 362.016 952.758 361.648 952.898 361.234 952.504 361.016 952 360.738 951.48 360.957 951.09 361.336 950.918 361.496 950.836 361.773 950.777 362.004 950.652 362.477 950.941 363.133 950.316 363.363 949.855 363.535 949.305 363.605 948.809 363.547 948.039 363.465 947.266 363.109 946.508 363.121 944.941 363.156 943.57 363.121 943.547 361.027 943.547 360.82 943.305 360.508 943.098 360.438 941.773 359.977 940.473 359.184 939 359.91 938.309 360.254 937.629 360.621 936.918 360.922 936.73 360.992 936.363 360.887 936.25 360.738 936.133 360.59 936.191 360.254 936.25 360.035 936.719 358.516 937.02 358.285 938.414 358.344 938.906 358.367 939.355 358.941 939.887 358.574 942.086 357.043 944.367 357.641 946.645 358.285 947.152 358.434 947.691 358.664 947.945 358.055 948.176 357.516 947.703 357.09 947.395 356.684 946.703 355.777 945.793 355.383 944.664 355.5 944.02 355.566 943.363 355.66 942.73 355.777 939.137 356.453 935.582 356.434 931.941 355.938 929.238 355.566 926.852 354.75 924.883 352.988 923.871 352.078 922.813 351.977 921.672 351.965 920.773 351.953 919.863 352.184 918.977 352.379 916.133 352.988 913.313 353.082 910.469 352.309 909.352 352 908.168 351.977 906.98 352.172 904.504 352.598 902.133 351.629 899.68 351.48 898.574 351.41 897.527 350.582 897.84 349.074 897.852 349.086 897.918 349.156 897.918 349.156 897.918 349.109 897.898 349.074 897.887 349.027 897.887 349.027 897.863 349.039 897.852 349.051 897.242 348.117 896.676 347.152 895.984 346.277 895.57 345.746 894.996 346.059 894.684 346.496 894.086 347.336 894.199 348.027 895.25 348.625 895.766 348.914 895.996 349.211 896.168 349.707 896.434 350.48 896.055 351.008 895.262 350.895 893.488 350.629 892.934 350.273 893.027 348.465 893.129 346.336 892.75 345.922 890.781 345.598 884.898 344.605 879.141 342.867 873.176 342.352 872.266 342.27 871.809 341.973 871.555 341.051 871.473 340.738 870.703 340.555 870.219 340.43 869.469 340.242 868.676 340.188 867.926 340 867.754 339.969 867.535 339.645 867.535 339.473 867.547 339.266 867.777 339.047 867.926 338.863 868.008 338.77 868.133 338.688 868.25 338.668 868.504 338.609 868.754 338.551 869.008 338.539 869.469 338.527 870.172 338.828 870.113 338.043 870.078 337.605 869.641 336.949 869.25 336.848 867.617 336.422 865.945 336.063 864.277 335.855 859.754 335.293 855.203 334.902 850.691 334.258 847.469 333.797 844.23 333.543 840.984 333.426 838.648 333.336 836.254 333.52 833.984 333.07 831.465 332.586 829.16 333.691 826.695 333.52 824.785 333.383 822.805 333.91 820.93 333.602 817.91 333.105 814.977 333.543 811.992 333.645 810.668 333.691 809.75 333.992 809.266 335.316 808.941 336.215 808.043 336.25 807.285 336.273 803.012 336.398 798.742 336.535 794.457 336.535 792.133 336.535 789.797 336.215 787.469 336.145 780.965 335.973 774.461 335.813 767.941 335.754 766.238 335.742 764.582 335.625 762.887 335.387 761.094 335.133 759.25 334.66 757.453 335.156 754.703 335.914 752.18 335.199 749.406 334.395 753.32 333.875 757.086 334.762 761.402 333.703 760.297 333.371 759.813 333.117 759.332 333.094 757.902 333.035 756.465 333.117 755.035 333.059 752.699 332.969 750.352 332.816 748.012 332.656 747.355 332.609 747.23 331.953 747.691 331.297 747.898 331.012 748.105 330.723 748.391 330.332 747.539 330.078 746.805 329.836 746.055 329.652 745.824 329.594 745.422 329.629 745.34 329.766 744.949 330.398 744.434 330.48 743.719 330.492 741.84 330.516 739.871 329.707 738.098 331.012 737.938 331.125 737.582 331.031 737.34 330.965 734.148 330.113 730.836 330.793 727.621 330.18 727.125 330.09 726.598 330.156 726.078 330.18 723.406 330.355 720.762 331.426 718.055 330.309 717.754 330.18 717.305 330.434 716.938 330.516 712.676 331.438 708.406 332.621 704.121 330.617 703.258 331.02 702.152 330.008 701.371 331.238 700.91 331.953 699.91 331.852 699.207 331.492 698.309 331.031 697.605 331.184 696.684 331.492 695.477 331.887 694.188 332.07 692.93 332.391 690.996 332.887 689.016 333.68 686.863 332.691 685.863 332.23 684.563 332.414 683.387 332.355 681.832 332.277 680.199 332.52 678.734 332.113 677.309 331.711 676.469 332.137 675.707 333.117 675.258 333.691 674.785 334.105 674.117 333.637 673.371 333.105 672.438 333.219 671.906 333.531 670.699 334.234 669.629 333.461 668.5 333.566 667.199 333.68 665.898 333.691 664.598 333.727 664.207 333.727 663.77 333.668 663.699 333.199 663.516 332.059 662.617 332.277 661.902 332.242 659.047 332.105 656.18 332.059 653.324 331.875 651.734 331.77 650.227 331.621 649.133 333.141 648.719 333.715 647.984 333.703 647.336 333.727 646.289 333.762 645.254 333.75 644.207 333.785 643.262 333.82 642.25 334.051 641.836 334.891 641.086 336.41 640.063 336.512 638.621 336.098 637.887 335.891 637.078 335.938 636.273 335.488 638.992 332.656 642.984 333.898 646.602 332.367 644.023 331.457 643.953 329.387 643.344 327.684 643.102 327.004 644.125 326.023 644.793 326.266 646.023 326.703 647.246 327.039 648.559 327.117 648.707 327.117 648.938 327.488 648.949 327.684 648.949 327.844 648.695 328.133 648.523 328.156 647.637 328.316 646.691 327.855 645.852 328.395 645.691 328.5 645.555 328.832 645.586 329.02 645.621 329.215 645.969 329.535 646.047 329.5 647.555 328.813 649.434 329.34 650.77 328.098 651.195 327.707 651.633 327.602 652.172 327.82 655.441 329.086 658.551 327.246 661.766 327.313 661.867 327.313 661.996 327.211 662.086 327.117 662.387 326.797 662.387 326.406 662.215 326.047 662.051 325.691 661.742 325.313 661.352 325.668 660.648 326.289 659.934 326.992 658.965 326.703 658.047 326.426 657.238 326.656 656.352 326.762 655.223 326.898 653.98 327.039 653.289 325.668 653.164 325.414 652.645 325.219 652.313 325.207 649.594 325.113 646.867 325.023 644.148 325.047 643.379 325.047 642.688 325.125 641.891 324.883 640.523 324.469 639.957 325.059 640.359 326.473 640.992 328.648 640.684 329.168 638.117 329.02 637.723 328.996 637.332 328.984 636.953 328.961 636.41 329.582 635.664 329.652 634.938 329.582 633.855 329.48 634.039 328.488 633.844 327.797 633.672 327.164 633.211 327.051 632.656 327.063 631.125 327.082 629.617 327.395 628.098 326.625 626.152 325.633 624.727 326.484 624.402 328.66 624.301 329.387 624.16 329.906 623.402 330.066 622.895 330.168 622.352 330.191 621.871 330.363 620.879 330.723 620.258 330.516 619.555 329.629 618.773 328.613 617.633 327.613 616.238 327.938 614.488 328.34 612.566 328.051 610.988 329.215 609.598 330.238 608.031 330.355 606.59 329.434 605.324 328.625 604.219 328.973 602.906 329.238 600.559 329.719 598.301 330.469 595.781 330.434 593.648 330.41 591.395 330.77 589.219 331.125 588.527 331.238 588.125 331.688 587.73 332.184 586.418 332.313 585.141 332.207 584 331.449 582.355 330.363 580.73 331.125 579.121 331.527 578.902 331.586 578.695 331.828 578.566 332.035 577.992 332.969 578.383 334.672 579.363 335.133 580.031 335.453 580.813 335.523 581.652 335.742 580.41 335.984 579.27 336.25 578.105 336.398 577.449 336.48 576.805 336.305 576.574 335.535 576.461 335.168 576.461 334.719 576.242 334.441 575.93 334.051 575.137 333.797 575.113 333.461 575.078 332.715 576.07 332.852 576.461 332.402 576.598 332.242 576.738 331.93 576.68 331.77 576.609 331.598 576.301 331.438 576.09 331.438 575.574 331.438 575.031 331.469 574.539 331.598 573.398 331.906 572.223 332.355 571.082 331.953 568.895 331.184 566.719 331.598 564.531 331.781 563.668 331.852 562.539 331.598 562.195 332.727 561.953 333.52 563.117 333.496 563.324 334.074 563.449 334.406 563.324 334.832 563.391 335.199 563.426 335.418 563.578 335.766 563.738 335.801 564.613 336.008 565.523 336.328 566.398 335.844 566.754 335.648 566.973 335.258 566.824 334.867 566.629 334.348 565.855 333.555 567.238 333.855 568.285 334.074 569.609 333.969 570.059 335.453 570.195 335.891 570.785 336.18 571.105 336.582 571.59 337.191 571.98 336.777 572.395 336.512 572.73 336.305 573.18 336.008 573.434 336.363 573.883 336.961 573.246 337.262 572.867 337.551 572.57 337.781 572.223 337.977 571.867 338.113 569.137 339.207 566.477 339.773 563.566 338.426 562.551 337.953 561.215 337.906 560.41 337.09 559.488 336.168 559.926 334.914 560.297 333.785 560.328 333.668 560.328 333.531 560.328 333.395 560.328 332.52 559.465 331.402 558.684 331.539 556.621 331.895 554.551 331.309 552.477 331.84 549.094 332.691 545.625 333.129 542.113 332.934 541.402 332.887 541.219 333.438 541.184 333.922 541.125 334.707 541.23 335.465 542.137 335.855 543.082 336.262 543.98 336.789 544.926 337.215 545.801 337.605 546.215 337.238 546.262 336.098 546.328 334.188 546.652 333.922 548.516 334.453 549 334.59 549.336 334.926 549.922 334.613 552.145 333.426 554.41 334.258 556.656 334.566 557.176 334.637 557.289 335.074 557.059 335.43 556.348 336.582 557.383 336.719 557.992 337.031 558.293 337.18 558.891 336.918 559.074 337.113 559.512 337.586 559.098 338 558.785 338.449 557.945 339.668 558.316 340.855 559.605 340.879 560.813 340.898 561.918 341.141 563.023 341.523 563.809 341.797 563.98 342.813 563.438 343.457 562.91 344.102 562.254 344.527 561.434 344.516 558.992 344.492 556.645 345.84 554.125 344.977 553.238 344.664 552.648 346.129 551.637 345.758 549.484 344.965 547.551 345.574 545.613 346.508 545.281 346.668 544.785 346.816 544.488 346.68 543.277 346.141 542.543 346.52 541.457 347.266 540.422 347.98 538.742 347.785 537.336 347.98 532.445 348.637 527.574 349.43 522.598 349.328 521.551 349.305 520.629 348.891 519.547 349.004 515.414 349.453 511.27 349.742 507.125 350.121 504.914 350.328 502.691 350.469 500.527 350.871 498.422 351.262 496.152 350.895 494.23 352.172 494.035 352.297 493.723 352.23 493.457 352.266 488.566 352.953 483.672 353.633 478.777 354.348 477.707 354.508 476.777 354.578 475.902 353.703 475.531 353.336 474.68 353.656 474.797 354.223 475.188 356.223 472.965 356.961 472.805 358.711 472.617 360.727 471.109 361.52 469.336 361.82 467.645 362.109 466.035 363.445 464.215 362.293 463.145 362.949 462.348 362.684 461.496 361.773 460.621 360.852 459.688 360.609 458.629 361.902 457.895 362.801 457.352 362.406 457.168 361.039 457.121 360.68 457.063 360.172 456.832 360 455.418 359 457.191 357.559 456.305 356.535 456.855 355.684 457.801 356.523 458.434 356.051 458.629 355.914 458.746 355.672 459.023 355.34 457.707 355.074 456.477 354.691 455.234 354.602 454.23 354.52 453.898 355.777 453.035 356.086 452.793 356.18 452.527 356.203 452.273 356.246 451.746 356.352 451.156 356.535 451.238 357.156 451.344 357.953 451.93 358.184 452.676 357.918 453.125 357.758 453.402 358.043 453.715 358.25 455.246 359.266 455.371 360.059 454 361.223 452.758 362.27 452.078 363.594 451.594 365.078 451.422 365.598 452.031 366.32 452.332 366.023 453.586 364.77 454.773 366.113 455.992 366.023 456.855 365.953 457.5 366.148 458.32 365.273 459.68 363.824 461.844 364.41 462.902 366.137 463.316 366.828 462.961 367.832 462.176 368.027 461.68 368.152 461.152 368.211 460.645 368.234 458.824 368.313 456.973 368.199 455.188 368.5 453.828 368.727 452.609 368.719 451.445 368.051 450.547 367.531 449.926 367.875 449.523 368.648 449.109 369.441 448.648 369.938 447.703 369.547 446.738 369.145 445.863 369.363 445.238 370.145 444.504 371.066 443.074 371.168 442.672 372.426 440.98 372.539 440.348 374.656 438.445 374.555 437.48 374.508 437.102 375.543 437.789 376.176 438.852 377.156 439.219 378.297 439.219 379.656 439.219 380.172 439.207 380.703 439.289 381.211 439.402 381.91 439.805 382.359 440.602 382.371 441.543 382.395 442.063 381.992 442.121 381.07 442.152 380.598 441.625 380.07 442.188 379.656 442.672 379.285 443.168 379.68 443.664 379.734 445.504 379.953 447.219 380.496 448.602 381.797 449.406 382.555 450.156 382.59 450.984 381.797 451.309 381.484 451.813 381.625 451.965 381.969 452.09 382.258 451.965 382.719 451.801 383.039 451.332 384.02 450.387 384.008 449.465 384.156 448.418 384.328 448.371 384.57 448.945 385.355 450.352 387.266 450.238 388.625 448.543 389.867 448.164 390.145 447.543 390.098 447.383 390.707 448.051 391.316 449.098 391.328 449.602 392.18 450.535 393.758 451.352 391.813 452.238 392.078 452.48 392.16 452.746 392.25 452.93 392.41 453.609 393.012 454.301 393.609 454.91 394.289 455.258 394.668 455.395 395.211 455.105 395.738 454.625 396.66 454.855 397.27 455.926 397.316 456.766 397.352 457.363 397.859 458.09 398.109 459.563 398.617 460.898 398.469 461.762 396.914 461.934 396.602 462.234 396.348 462.523 396.129 462.855 395.879 463.742 396.328 463.73 396.73 463.719 397.121 463.719 397.523 463.594 397.891 463.18 399.125 462.477 400.148 463.477 401.621 464.086 402.52 462.797 403.535 461.508 403.223 461.012 403.109 460.438 402.762 460.094 403.293 459.609 404.027 458.813 404.109 458.137 404.477 457.512 404.824 457.617 405.398 458.422 405.895 458.941 406.203 459.699 406.262 459.492 407.16 457.27 408 454.922 407.598 452.676 407.645 452.621 408.082 452.563 408.336 452.551 408.59 452.48 409.844 452.32 410.027 451.363 409.797 451.125 409.738 450.906 409.543 450.664 409.477 449.891 409.258 449.418 409.543 449.418 410.328 449.418 410.949 449.594 411.559 449.707 412.18 449.926 412.18 450.145 412.18 450.34 412.113 451.629 411.641 453.102 411.41 454.152 410.613 455.785 409.383 456.973 411.535 458.422 410.867 458.594 410.789 458.824 410.801 459.031 410.801 458.168 412.363 456.188 411.547 455.051 412.48 455.418 413.539 456.867 414.242 456.441 415.195 455.59 417.133 456.145 419.652 453.98 421.059 453.496 421.367 452.953 421.898 453 422.844 454.117 424.223 455.477 425.262 457.559 424.824 458.492 424.625 459.402 424.754 460.023 425.594 460.16 425.777 460.266 426.09 460.195 426.262 460.125 426.434 459.77 426.629 459.609 426.586 459 426.422 458.344 425.766 457.801 426.25 456.547 427.391 455.152 427.492 453.586 427.332 453.113 427.285 452.609 427.656 452.125 427.828 451.723 427.965 451.469 428.254 451.504 428.668 451.563 429.324 452.113 429.496 452.633 429.496 453.277 429.496 453.934 429.406 454.555 429.254 455.949 428.934 457.316 428.543 458.699 428.207 459.078 428.117 459.504 428.207 459.621 428.633 459.758 429.117 459.332 429.301 459 429.484 458.77 429.613 458.539 429.762 458.285 429.82 456.387 430.211 454.484 430.672 452.563 430.926 451.25 431.086 450.008 431.387 448.773 431.836 448.602 431.902 448.52 432.227 448.395 432.422 448.602 432.547 448.832 432.801 449.016 432.766 450.523 432.523 451.977 431.824 453.551 432.676 453.898 432.859 454.555 432.582 455.039 432.422 456.156 432.055 457.238 431.605 458.355 431.246 460.219 430.637 460.324 430.684 461.266 432.629 461.43 432.949 461.43 433.344 461.543 433.871 459.918 434.125 458.551 434.598 457.398 435.852 456.199 437.152 454.324 437.176 452.656 437.004 451.824 436.91 451.043 435.992 450.121 436.613 448.785 437.512 450.238 438.453 450.168 439.387 450.133 439.906 450.168 440.434 450.215 440.953 450.27 441.805 450.871 441.988 451.57 441.953 452.09 441.934 452.609 441.852 453.113 441.734 457.031 440.906 460.922 439.93 464.973 439.984 467.438 440.02 469.891 439.965 472.355 439.953 472.469 439.953 472.617 439.996 472.699 440.078 472.793 440.16 472.816 440.309 472.859 440.434 472.031 442.172 472.02 442.266 470.453 442.07 469.418 441.941 468.418 442.023 468.223 443.035 467.773 445.281 466.574 447.043 464.973 448.586 465.883 449.531 466.898 449.98 467.887 449.621 469.785 448.934 471.777 449.359 473.691 448.922 474.816 448.668 476.004 448.379 476.164 450.277 476.234 451.133 477.27 450.543 477.836 450.762 478.297 450.945 478.973 450.914 479.02 451.547 479.066 452.191 478.469 452.258 477.949 452.387 474.07 453.32 470.223 454.391 466.148 453.883 465.711 453.824 464.984 454.078 464.777 454.426 463.617 456.301 461.887 456.75 459.852 456.75 458.375 456.75 457.191 457.234 457.238 459.121 457.918 459.457 458.734 459.664 459.285 460.168 460.609 461.367 462.016 461.391 463.582 460.871 464.316 460.629 465.09 460.527 465.836 460.32 467.129 459.949 468.383 459.375 468.867 458.074 469.395 456.656 470.441 456.383 471.641 456.484 474.023 456.691 476.234 455.539 478.594 455.691 481.75 454.285 485.031 455.219 488.266 455.207 488.934 455.207 488.992 455.781 488.969 456.336 488.934 457.016 488.82 457.613 488.105 457.938 487.207 458.328 486.031 458.145 485.375 459.109 485.918 459.824 486.598 459.789 487.195 459.707 488.738 459.5 490.328 459.387 491.777 458.902 494.023 458.156 496.152 456.738 498.523 458.523 500.609 458.375 502.68 458.211 504.766 458.086 505.156 458.063 505.711 457.52 505.949 458.465 502.406 459.871 498.641 460.102 494.934 460.563 491.457 461 487.945 461.195 484.73 462.816 483.938 463.219 483.063 463.832 482.152 463.52 480.656 462.988 479.344 463.785 477.949 463.922 476.199 464.094 475.969 464.578 476.441 466.203 476.844 467.605 477.191 467.711 478.559 468.023 479.918 468.332 481.035 467.203 482.383 467.641 484.316 468.273 486.227 467.641 488.129 467.309 488.313 467.273 488.449 466.996 488.621 466.824 488.426 466.676 488.254 466.469 488.035 466.387 487.52 466.203 486.551 466.719 486.609 465.719 486.645 465.188 487.473 465.34 487.977 465.281 488.496 465.223 489.027 465.199 489.531 465.109 494.047 464.258 498.547 463.773 503.051 465.168 503.406 465.281 503.844 465.293 504.211 465.211 507.285 464.59 510.43 464.879 513.527 464.27 516.059 463.773 518.695 463.832 521.266 464.5 521.746 464.625 522.359 464.82 522.75 464.648 524.039 464.082 525.293 464.418 526.57 464.512 526.871 464.531 527.379 464.258 527.48 464.004 527.664 463.543 527.184 463.426 526.824 463.336 526.32 463.207 525.766 463.094 525.891 462.379 525.984 461.84 526.375 461.457 526.871 461.238 527.102 461.137 527.367 461.078 527.621 461.066 530.992 460.93 534.391 460.918 537.75 460.641 540.57 460.41 543.348 460.422 546.641 460.711 544.707 461.816 543.105 461.516 541.563 461.527 539.074 461.563 536.602 461.551 534.184 462.254 533.688 462.391 533.113 462.438 532.73 462.727 532.34 463.023 531.625 463.082 531.523 463.945 536.059 463.727 540.48 463.164 544.844 463.406 549.355 463.656 553.883 463.023 558.383 463.844 555.699 464.313 553.008 464.566 550.313 464.844 544.613 465.418 538.832 465.582 533.25 466.711 525.316 468.297 517.348 469.402 509.289 470.07 508.125 470.164 506.93 470.289 505.824 470.613 501.586 471.867 497.281 472.66 492.871 472.984 491.664 473.074 490.66 473.156 489.543 472.512 487.977 471.613 486.043 471.648 484.719 472.648 482.82 474.09 480.723 473.941 478.777 473.754 477.223 473.605 475.992 474.055 474.656 474.445 474.023 474.629 474.059 475.16 474.414 475.668 474.805 476.219 475.242 476.555 476.004 476.543 477.836 476.508 479.586 475.734 481.438 476.023 482.484 476.184 483.477 476.023 484.488 475.609 485.309 475.273 486.262 475.297 487.16 475.184 492.582 474.48 498.02 473.824 503.441 473.086 505.238 472.848 507.012 472.43 508.828 472.281 512.848 471.949 516.867 471.543 520.848 470.945 529.484 469.656 538.121 468.551 546.836 468.066 548.781 467.953 550.738 467.953 552.684 467.941 556.207 467.906 559.57 466.535 563.117 466.676 563.59 466.699 564.199 466.605 564.383 465.973 564.703 464.879 565.59 464.773 566.523 464.625 568.609 464.281 570.68 464.465 572.766 464.672 574.309 464.832 575.895 465.168 577.402 464.957 581.594 464.383 585.719 464.465 589.828 465.477 592.027 466.02 594.215 465.246 596.402 465.441 597.449 465.535 598.004 464.762 598.762 464.281 599.543 463.785 600.5 463.738 601.422 463.898 602.238 464.051 602.551 464.477 601.961 465.223 601.316 466.051 601.605 466.652 602.445 467.078 602.906 467.32 603.438 467.734 603.863 467.664 606.234 467.273 608.457 468.367 610.805 468.172 616.781 467.676 622.77 468.148 628.754 468.078 633.555 468.023 638.379 468.746 643.168 467.688 644.184 467.457 645.23 467.445 646.266 467.734 650.09 468.805 653.879 468.68 657.746 467.723 659.969 467.168 662.328 466.594 664.539 468.184 665.266 468.711 666.277 468.699 667.188 468.332 669.156 467.527 671.297 468.449 673.277 467.723 673.555 467.617 674.141 467.813 674.293 468.066 675.465 469.84 677.168 468.656 678.609 468.93 680.242 467.793 682.004 468.332 683.742 468.551 685.254 468.734 686.816 469.148 688.016 467.617 688.246 467.32 688.992 467.332 689.5 467.344 692.598 467.367 695.707 466.676 698.805 467.48 699.402 467.641 700.094 467.445 700.738 467.434 702.305 467.41 703.859 467.375 705.422 467.41 706.195 467.422 707.07 467.375 707.621 468.023 708.59 469.172 709.098 468.367 709.73 467.664 710.109 467.25 710.848 467.066 710.984 467.711 711.238 468.84 711.859 469.184 712.875 469.184 714.945 469.184 717.031 469.563 719.078 468.887 719.539 468.734 720.172 468.621 720.574 468.805 722.336 469.621 724.168 469.289 725.977 469.266 728.969 469.23 732.008 468.84 734.957 469.172 737.949 469.52 740.91 469.484 743.879 469.379 748.035 469.242 752.203 469.313 756.371 469.07 761.762 468.758 767.195 469.91 772.605 468.918 772.973 468.852 773.398 468.918 773.758 469.023 775.059 469.426 776.313 469.219 777.625 469.023 778.648 468.875 779.711 468.988 780.746 469 781.941 469.012 782.762 469.379 782.68 470.82 782.645 471.324 782.992 471.832 783.613 471.879 785.234 472.004 786.777 471.773 787.598 470.176 787.965 469.461 788.461 469.105 789.082 469.289 791.949 470.164 794.77 469.23 797.602 469.184 800.332 469.148 803.059 469.289 805.801 469.266 811.234 469.219 816.656 469.16 822.09 469 823.391 468.965 824.625 469.367 825.973 469.105 827.996 468.711 830.207 469.484 832.164 468.68 834.215 467.836 836.266 468.77 838.289 468.297 839.57 468 840.883 468.102 841.883 469.254 842.414 469.863 843.172 470.117 843.988 470.152 847.363 470.277 850.75 470.359 854.121 470.555 856 470.656 857.586 470.555 857.555 468.09 857.555 467.988 857.656 467.836 857.75 467.805 857.98 467.711 858.242 467.605 858.484 467.629 858.715 467.664 859.105 467.824 859.117 467.977 859.211 468.723 859.223 469.496 859.258 470.348 861.168 470.934 863.066 471.152 865.047 471.004 868.055 470.785 871.023 470.934 874.016 471.348 878 471.902 881.984 472.41 886.059 472.352 888.73 472.316 891.484 472.719 894.188 473.305 897.195 473.961 900.293 474.629 903.445 474.18 905.793 473.848 908.098 474.309 910.379 474.77 911 474.895 911.645 475.242 912.266 475.078 915.398 474.297 918.297 476.473 921.418 475.723 924.609 476.898 927.98 477.016 931.297 477.473 936.063 478.129 940.844 478.797 945.633 479.211 948.754 479.477 951.859 479.777 954.934 480.352 956.984 480.734 959.055 481.043 961.117 481.32 966.137 481.988 971.156 482.734 976.188 483.207 980.988 483.668 985.48 485.578 990.27 485.961 991.766 486.074 993.16 487.121 994.75 486.5 993.977 484.359 991.859 485.371 990.488 484.672 989.672 484.254 988.887 483.715 987.957 483.727 983.199 483.773 978.906 481.539 974.242 480.996 972.445 480.789 970.684 480.375 968.844 480.316 967.438 480.273 966.023 479.859 964.652 479.477 962.281 478.797 959.93 478.164 957.445 478.051 954.59 477.898 951.699 477.762 948.891 477.242 943.582 476.266 939.094 475.746 933.809 475.93 933.023 475.953 932.277 475.875 931.516 475.563 930.676 475.23 929.684 474.723 928.902 474.906 925.852 475.633 923.191 472.938 920.141 474.043 919.992 474.102 919.703 473.789 919.484 473.652 918.426 473.043 917.25 472.914 916.078 472.938 914.742 472.961 913.543 472.637 912.313 472.133 910.641 471.453 908.836 471.105 907.105 470.578 906.738 470.461 906.418 470.129 906.68 469.68 906.785 469.496 907.105 469.277 907.258 469.324 909.055 469.781 910.883 469.715 912.703 469.75 913.348 469.75 914.117 469.898 914.879 468.977 913.453 468.598 912.367 468.125 911.242 468.023 904.621 467.398 898 466.824 891.379 466.305 887.488 465.996 883.574 465.813 879.684 465.547 874.098 465.168 868.516 464.5 862.918 464.453 857.336 464.406 851.785 463.52 846.188 463.98 845.566 464.027 844.898 463.82 844.277 463.656 843.508 463.461 842.781 463.418 841.977 463.613 838.75 464.383 835.48 463.656 832.234 463.875 831.301 463.934 830.84 463.484 830.598 462.598 830.449 462.012 829.84 461.734 829.402 462.184 827.09 464.602 824.566 463.68 822.254 462.438 821.16 461.852 820.133 461.426 818.973 461.492 817.176 461.609 815.32 461.055 813.57 461.965 813.008 462.254 812.305 462.172 811.672 461.875 810.566 461.355 809.344 461.633 808.23 461.426 803.508 460.551 798.754 462.934 794.055 461.219 793.941 461.172 793.789 461.219 793.664 461.238 790.648 461.734 787.457 460.563 784.535 462.426 783.703 462.957 782.242 462.543 781.078 462.496 778.766 462.402 776.43 462.023 774.148 462.23 771.41 462.473 768.703 462.531 765.961 462.438 763.301 460.734 760.676 462.934 757.984 462.496 754.496 461.93 750.938 462.148 747.438 462.586 743.488 463.07 739.816 461.238 735.922 461.426 735.348 461.449 734.75 460.953 734.16 460.699 733.367 460.355 732.641 460.363 732.078 461.137 731.547 461.852 730.789 461.852 729.992 461.941 728.301 462.137 726.621 462.113 724.918 461.988 722.75 461.828 720.586 461.066 718.375 461.918 717.719 462.172 717.109 461.668 716.891 460.977 716.789 460.652 716.73 460.113 716.902 459.914 717.375 459.398 718.168 459.191 718.652 459.676 719.645 460.676 720.461 460.309 721.383 459.652 721.691 459.434 722.105 459.145 722.43 459.18 725.203 459.559 727.84 458.43 730.5 458.418 732.828 458.406 735.129 458.293 737.434 458.156 743.672 457.773 749.891 458.637 756.152 458.145 760.379 457.809 764.672 457.855 768.898 457.359 771.559 457.051 774.012 458.039 776.59 458.016 776.855 458.016 777.199 458.453 777.371 458.766 777.766 459.469 778.422 459.523 779.043 459.469 780.332 459.34 781.887 459.523 782.852 458.867 785.223 457.258 787.941 458.406 790.336 457.52 792.316 458.363 794.492 457.5 796.496 458.281 798.395 459.02 800.504 458.559 802.449 459.227 804.324 459.871 806.227 460.285 807.953 458.695 808.586 458.109 809.438 458.383 810.211 458.406 813.316 458.477 816.426 458.512 819.535 458.582 823.449 458.66 827.352 458.695 831.258 458.844 835.113 458.996 838.992 457.797 842.816 459.145 843.035 459.227 843.32 459.051 843.586 459.051 848.527 459.039 853.453 458.949 858.395 459.051 860.453 459.098 862.539 459.133 864.586 459.719 865.992 460.125 867.477 461.055 869.055 459.938 869.344 459.73 870.066 460.008 870.527 460.203 871.656 460.688 872.809 460.688 873.996 460.563 875.688 460.375 877.367 460.48 879.059 460.617 882.168 460.871 885.289 460.941 888.387 461.172 891.496 461.391 894.613 461.598 897.699 462.035 899.508 462.289 901.234 462.633 903.113 462.461 904.898 462.289 906.797 462.438 908.547 462.875 910.617 463.383 912.68 463.395 914.754 463.449 917.84 463.531 920.98 462.84 924.008 464.016 924.238 464.105 924.539 464.105 924.781 464.063 926.348 463.773 927.727 463.703 929.063 465.051 929.594 465.582 930.883 466.031 932.012 465.559 932.242 464.785 931.172 463.691 932.531 463.219 933 463.059 933.785 463.023 933.738 462.496 933.656 461.551 932.793 461.941 932.195 461.906 931.941 461.895 931.664 461.887 931.438 461.781 931.043 461.609 930.848 461.238 930.953 460.848 931 460.664 931.367 460.422 931.551 460.445 934.719 460.883 937.941 460.734 941.086 461.309 946.461 462.301 952.047 461.863 957.328 463.578 957.906 463.762 958.629 463.68 959.254 463.555 959.934 463.418 960.52 463.531 961.141 463.797 964.18 465.121 967.473 465.234 970.684 465.695 972.207 465.914 973.805 465.453 975.07 466.801 975.348 467.09 976.063 467.043 976.57 467.02 978.688 466.895 980.727 467.055 982.531 468.379 982.926 468.656 983.512 468.77 984.008 468.77 987.563 468.816 990.938 469.816 994.367 470.543 997.938 471.293 1001.52 472.004 1005.09 472.719 1005.594 472.824 1006.113 472.973 1006.621 472.984 1006.988 472.984 1007.473 472.914 1007.68 472.672 1007.816 472.512 1007.68 471.844 1007.449 471.684 Z M893.5 469.266 C893.477 469.195 893.785 468.906 893.949 468.906 894.855 468.887 895.754 468.906 896.664 468.906 897.816 468.906 899 468.68 900.086 469.219 900.27 469.313 900.441 469.621 900.441 469.828 900.441 469.98 900.188 470.23 900.004 470.277 897.93 470.82 895.918 470.289 893.902 469.84 893.719 469.793 893.555 469.473 893.488 469.242 Z M864.07 467.918 C864.023 467.516 864.254 467.102 864.668 467.102 867.109 467.09 869.539 467.137 871.957 467.156 875.09 466.938 878.141 467.965 881.27 467.551 881.629 467.504 882.031 467.699 882.387 467.848 882.594 467.941 882.871 468.16 882.895 468.355 882.918 468.527 882.676 468.898 882.516 468.918 879.855 469.379 877.172 470.059 874.465 469.438 873.051 469.105 871.645 468.941 870.242 469.07 868.273 469.254 866.418 468.598 864.496 468.516 864.336 468.516 864.094 468.148 864.07 467.93 Z M455.258 377.641 C455.258 377.871 455.082 378.262 454.945 378.297 453.449 378.582 451.906 379.125 450.457 378.977 448.855 378.801 447.059 378.988 445.238 377.5 447.023 377.262 448.496 376.926 450.063 377.57 451.594 378.191 453.07 377.203 454.578 376.961 454.98 376.891 455.293 377.215 455.281 377.652 Z M459.965 395.418 C459.918 396.211 459.031 395.957 458.457 396.211 458.156 396.051 457.801 395.91 457.523 395.68 457.352 395.543 457.203 395.242 457.227 395.035 457.25 394.852 457.5 394.578 457.676 394.543 458.043 394.484 458.434 394.543 458.801 394.609 459.297 394.715 460 394.898 459.977 395.418 Z M468.625 366.586 C467.852 368.141 466.723 368.004 465.746 368.141 465.227 368.211 464.73 368.129 464.5 367.52 464.293 366.977 464.883 366.367 465.699 366.391 466.598 366.414 467.496 366.508 468.637 366.586 Z M472.332 405.688 C472.137 405.996 471.895 406.445 471.605 406.504 470.582 406.699 469.648 405.906 468.555 406.203 467.816 406.414 466.828 406.332 466.828 407.367 466.828 408.691 464.352 408.117 465.02 409.879 465.031 409.926 463.961 410.535 463.363 410.602 461.969 410.777 460.563 410.789 459.172 410.855 459.012 409.727 459.25 408.887 460.609 408.691 461.508 408.566 462.406 408.371 463.258 408.07 464.133 407.758 464.008 407.207 463.398 406.652 463.109 406.379 462.949 405.895 463.328 405.699 465.137 404.777 467.496 405.445 469.051 403.742 469.902 404.57 470.973 404.848 472.09 405.055 472.391 405.109 472.492 405.434 472.32 405.699 Z M486.367 453.066 C485.676 453.492 484.973 453.469 484.27 453.09 484.961 452.883 485.664 452.488 486.367 453.066 Z M571.094 458.176 C571.094 458.016 571.336 457.773 571.52 457.727 571.867 457.637 572.246 457.637 572.559 457.613 572.926 457.707 573.398 457.637 573.34 458.145 573.293 458.559 572.902 458.695 572.523 458.73 572.152 458.766 571.773 458.801 571.43 458.719 571.266 458.684 571.082 458.363 571.082 458.188 Z M576.828 343.469 C574.469 343.871 572.016 343.766 569.715 344.516 568.988 344.746 568.043 344.688 567.547 344.02 566.961 343.238 566.004 343.098 565.383 342.441 565.316 342.363 565.34 342.191 565.328 342.051 565.719 341.293 566.477 341.086 567.203 340.91 568.203 340.668 569.285 340.648 570.23 340.277 572.406 339.438 574.273 340.43 576.137 341.188 576.887 341.5 576.668 342.547 576.84 343.457 Z M595.918 341.117 C596.148 340.336 596.863 339.957 597.645 339.957 598.254 339.957 598.43 340.52 598.418 341.039 598.406 341.742 597.668 342.18 596.758 342.098 596.25 341.961 595.746 341.695 595.906 341.117 Z M599.164 333.059 C599.141 333.254 598.879 333.426 598.715 333.602 597.992 333.715 597.367 333.207 597.461 332.52 597.484 332.324 597.715 332.047 597.898 332 598.59 331.816 599.246 332.367 599.164 333.059 Z M633.832 337.148 C633.773 337.813 633.063 337.746 632.613 337.641 631.301 337.355 630.02 337.594 628.742 337.813 628.227 337.895 627.637 338.195 627.211 338.031 623.895 336.801 620.547 338.539 617.219 337.871 615.906 337.605 614.547 338.125 613.395 336.719 612.555 335.695 610.91 336.57 609.641 336.316 609.102 337.297 608.559 338.273 608.055 339.266 608.031 339.324 608.363 339.691 608.559 339.715 609.332 339.781 610.113 339.738 610.887 339.805 611.047 339.816 611.324 340.141 611.301 340.254 611.254 340.473 611.047 340.797 610.863 340.832 609.16 341.199 607.465 341.348 606.418 339.531 605.992 338.793 605.359 338.461 604.621 338.148 603.93 337.859 602.398 338.492 602.906 336.73 602.273 336.676 601.328 336.328 601.074 336.605 599.176 338.699 596.699 338.414 594.523 337.871 591.773 337.18 589.414 338.09 586.938 338.758 586.777 338.805 586.605 339.148 586.594 339.367 586.594 339.574 586.766 339.922 586.926 339.957 587.918 340.211 589 339.84 589.965 340.383 590.242 340.531 590.402 340.648 590.301 340.969 590.266 341.074 590.207 341.246 590.125 341.258 587.074 341.773 584.082 342.719 580.938 342.418 580.375 342.363 579.984 342.063 579.82 341.5 579.648 340.879 579.535 340.242 579.316 339.645 579.086 339.023 577.613 338.906 578.336 337.988 578.832 337.375 579.789 337.93 580.523 338.172 582.621 338.875 584.324 337.805 585.992 336.824 586.383 336.594 586.73 336.02 586.789 335.57 586.938 334.418 587.281 333.348 587.766 332.301 588.344 332.816 588.941 333.242 589.793 333.207 590.703 333.176 591.613 333.289 592.512 333.207 593.625 333.117 594.109 333.625 594.457 334.637 595.02 336.273 595.102 336.262 596.563 335.902 596.816 335.844 597.059 335.625 597.289 335.648 600.547 335.973 603.668 334.719 606.914 334.797 608.723 334.844 608.723 334.738 609.066 332.609 609.09 332.484 609.066 332.344 609.102 332.219 609.227 331.84 609.48 331.527 609.906 331.563 610.125 331.586 610.496 331.816 610.496 331.953 610.539 333.336 611.254 333.484 612.496 333.426 615.469 333.301 618.449 333.395 621.422 333.395 621.813 333.395 622.203 333.348 622.594 333.383 624.266 333.496 624.32 333.645 623.379 335.387 623.195 335.719 622.965 336.133 623.48 336.328 623.805 336.445 624.23 336.387 624.574 336.293 624.793 336.238 625.035 336.008 625.141 335.801 625.301 335.453 625.324 335.051 625.461 334.695 626.063 333.176 626.105 333.117 627.867 334.027 628.629 334.418 629.344 334.488 630.113 334.383 631.438 334.211 632.348 334.992 633.211 335.766 633.555 336.074 633.855 336.676 633.82 337.113 Z M681.992 460.551 C681.832 461.02 681.566 461.426 680.922 461.438 680.23 461.102 680.449 460.445 680.484 459.883 680.508 459.488 680.75 459.215 681.188 459.203 681.762 459.203 682.199 459.914 681.992 460.551 Z M712.793 460.551 C712.688 461.309 710.949 462.184 710.086 461.563 709.039 460.801 708.152 460.191 707.059 461.391 706.988 461.457 706.77 461.492 706.691 461.445 704.41 459.984 702.223 461.172 700 461.633 699.113 461.816 698.203 461.941 697.352 461.492 697.273 461.445 697.215 461.309 697.18 461.207 697.145 461.078 697.133 460.836 697.168 460.824 698.516 460.41 699.852 459.871 701.234 459.629 703.398 459.258 705.574 458.902 707.82 459.34 709.199 459.605 710.652 459.445 712.066 459.547 712.438 459.57 712.793 459.848 712.793 460.539 Z M860.879 339.68 C860.855 339.863 860.605 340.152 860.441 340.164 857.105 340.266 853.867 339.703 849.805 338.586 853.684 337.953 856.68 338.344 859.66 338.449 859.992 338.461 860.34 338.781 860.625 339.035 860.789 339.184 860.914 339.484 860.891 339.691 Z M864.934 339.75 C864.391 340.047 863.828 340.301 863.32 340.555 863.148 340.473 862.953 340.438 862.953 340.383 862.918 340.176 862.895 339.793 862.977 339.762 863.539 339.52 864.129 339.344 864.715 339.184 864.785 339.16 864.957 339.301 865.004 339.402 865.035 339.496 865.004 339.715 864.945 339.75 Z M935.855 388.129 C935.855 388.129 936.031 387.957 936.133 387.934 936.5 387.863 936.871 387.84 937.363 387.773 937.859 387.887 938.469 388.012 939.07 388.176 939.113 388.188 939.148 388.383 939.148 388.484 939.148 388.59 939.105 388.75 939.023 388.797 938.066 389.348 937.09 389.188 936.156 388.762 935.996 388.68 935.926 388.359 935.855 388.129 Z M931.184 358.621 C931.195 358.445 931.48 358.148 931.645 358.148 932.137 358.16 932.645 358.25 933.117 358.414 933.313 358.48 933.484 358.781 933.531 359 933.555 359.09 933.23 359.32 933.035 359.379 932.793 359.449 932.527 359.379 932.301 359.379 932.023 359.32 931.723 359.344 931.527 359.207 931.344 359.09 931.172 358.805 931.184 358.621 Z M928.879 364.457 C929.523 364.398 930.723 365.113 930.664 365.598 930.539 366.586 930.309 367.566 930.102 368.672 928.535 368.105 928.164 366.977 928.246 365.633 928.27 365.195 928.098 364.539 928.879 364.469 Z M900.969 422.531 C901.949 422.164 902.949 421.98 904.012 422.188 905.266 422.426 906.543 422.613 907.809 422.844 909.25 423.094 909.605 424.051 909.398 425.664 908.234 424.707 906.945 424.949 905.691 424.891 904.012 424.813 902.352 424.535 900.797 423.855 900.602 423.773 900.406 423.523 900.348 423.301 900.199 422.785 900.648 422.668 900.98 422.543 Z M892.555 360.313 C892.555 360.219 892.566 360.141 892.578 360.047 895.742 360.348 898.922 360.621 902.086 360.957 902.238 360.969 902.469 361.324 902.457 361.508 902.457 361.684 902.168 361.957 901.996 361.969 899.52 362.051 897.172 361.246 894.766 360.828 894.016 360.703 893.293 360.496 892.543 360.324 Z M919.152 449.922 C918.934 450.004 918.691 450.188 918.484 450.152 917.781 450.047 916.984 450.453 915.891 449.289 917.227 449.391 917.953 449.426 918.668 449.52 918.84 449.543 918.988 449.773 919.152 449.91 Z M919.773 460.332 C919.773 460.527 919.59 460.859 919.438 460.883 918.828 461.008 918.207 461.031 917.699 461.078 917.344 461.02 917.09 461.008 916.848 460.953 916.387 460.824 916.328 460.445 916.41 460.066 916.457 459.859 916.688 459.523 916.824 459.523 917.688 459.547 918.551 459.641 919.414 459.766 919.566 459.789 919.762 460.125 919.773 460.32 Z M919.773 460.332" fill="#0cc0df" fill-opacity="1" stroke="none"/>
 <path id="Trazado-2" d="M665.875 472.363 C668.199 472.34 670.527 472.398 673.762 472.43 676.488 472.672 680.117 472.328 683.754 472.109 689.328 471.773 694.922 471.938 700.508 471.914 701.531 471.914 702.59 471.949 703.594 472.145 707.957 472.961 712.367 472.914 716.766 472.824 719.734 472.766 722.66 472.848 725.516 473.777 726.887 474.215 728.289 474.203 729.73 474.148 732.066 474.043 734.402 474.055 736.742 474.066 737.098 474.066 737.512 474.25 737.57 474.746 737.617 475.16 737.523 475.504 737.121 475.699 736.293 476.105 735.484 476.449 734.52 476.012 733.941 475.746 733.23 475.492 732.652 475.609 729.914 476.16 727.219 475.68 724.492 475.586 722.809 475.527 721.117 475.449 719.438 475.863 717.109 476.438 714.773 475.504 712.434 475.711 711.93 475.758 711.398 475.586 710.883 475.598 709.074 475.645 707.254 475.68 705.445 475.793 703.559 475.918 701.82 476 699.934 475.125 698.367 474.398 696.363 474.586 694.555 474.469 692.598 474.344 690.641 474.355 688.684 474.297 686.863 474.238 685.031 474.148 683.215 474.125 678.527 474.078 673.852 474.066 669.168 474.008 668.004 473.996 666.84 473.836 665.668 473.789 665.195 473.766 664.516 474.055 664.664 473.191 664.758 472.625 665.367 472.387 665.863 472.375 Z M665.875 472.363" fill="#0cc0df" fill-opacity="1" stroke="none"/>
 <path id="Trazado-3" d="M800.078 474.816 C806.984 474.859 813.883 474.941 822.805 475.035 825.336 475.137 829.887 475.309 834.434 475.492 837.531 475.621 840.641 475.344 843.738 475.77 845.129 475.953 846.594 475.68 848.02 475.598 848.664 475.563 849.355 475.32 849.93 475.48 855.02 476.922 860.281 476.207 865.43 476.828 868.652 477.223 871.91 477.406 875.156 477.613 878.266 477.809 881.387 477.922 884.508 478.074 885.414 478.117 886.348 477.98 887.176 478.441 887.371 478.555 887.57 478.797 887.613 479.027 887.637 479.156 887.371 479.477 887.223 479.477 886.051 479.512 884.852 479.66 883.711 479.477 878.207 478.59 872.66 478.754 867.121 478.488 863.23 478.305 859.336 477.98 855.434 477.809 848.297 477.496 841.145 477.105 833.996 477.012 823.586 476.875 813.191 476.16 802.77 476.449 801.746 476.473 800.664 476.703 799.801 475.887 799.629 475.723 799.477 475.426 799.512 475.219 799.535 475.043 799.859 474.805 800.043 474.805 Z M800.078 474.816" fill="#0cc0df" fill-opacity="1" stroke="none"/>
 <path id="Trazado-4" d="M944.387 352.402 C942.879 352.84 941.406 352.965 939.805 352.746 937.504 352.438 935.164 352.504 933.094 351.172 932.414 350.734 931.609 350.859 930.848 351.191 929.617 351.746 928.395 351.641 927.059 351.332 925.574 350.984 923.977 351.102 922.422 350.973 921.914 350.93 921.316 350.789 921.383 350.098 921.43 349.629 921.441 348.992 922.051 348.844 922.57 348.719 923.066 348.59 923.363 348.117 924.02 347.094 924.516 347.301 924.895 348.316 925.113 348.879 925.586 349.246 926.094 348.992 927.727 348.164 929.305 348.211 930.953 348.949 931.25 349.086 931.746 348.973 932.082 348.82 932.414 348.672 932.793 348.359 932.887 348.039 932.977 347.727 932.84 347.141 932.598 346.98 931.871 346.496 931.043 346.172 930.227 345.77 931.445 344.273 932.957 344.527 934.488 344.824 935.145 344.953 935.363 345.414 935.164 345.941 934.508 347.785 936.5 348.258 936.984 349.512 937.285 350.273 938.195 350.492 938.965 350.547 940.625 350.664 942.293 350.711 943.949 350.711 944.551 350.711 945.012 350.883 945.207 351.379 945.469 352.066 944.895 352.219 944.387 352.367 Z M944.387 352.402" fill="#0cc0df" fill-opacity="1" stroke="none"/>
 <path id="Trazado-5" d="M740.023 474.816 C742.902 475.504 745.813 473.215 748.691 474.883 748.98 475.055 749.465 474.965 749.844 474.918 755.152 474.379 760.48 475.207 765.789 474.746 766.988 474.641 768.07 474.883 769.844 475.793 768.781 475.898 768.402 476 768.035 475.965 766.344 475.816 764.672 475.645 763.246 476.887 763.082 477.035 762.68 477.164 762.566 477.07 760.633 475.598 758.906 477.047 757.098 477.395 756.336 477.531 755.555 477.578 754.77 477.602 754.266 477.613 753.586 477.66 753.391 477.129 752.824 475.609 751.695 475.918 750.559 476.117 746.988 476.75 743.406 476.738 739.805 476.473 739.617 476.461 739.379 476.184 739.309 475.988 739.172 475.598 739.344 475.254 739.688 475.012 739.793 474.941 739.918 474.793 740.012 474.816 Z M740.023 474.816" fill="#0cc0df" fill-opacity="1" stroke="none"/>
 <path id="Trazado-6" d="M896.387 479.086 C900.027 479.281 903.652 479.66 907.293 479.707 910.043 479.742 912.738 480.031 915.453 480.41 917.25 480.664 919.023 481.102 920.879 481.09 921.547 481.09 922.453 481.078 922.973 482.148 921.938 482.734 920.773 482.953 919.668 482.805 917.734 482.551 915.754 482.586 913.855 482.266 908.465 481.355 903.02 481.273 897.598 480.859 897.207 480.824 896.813 480.824 896.422 480.801 894.281 480.699 893.188 480.25 893.566 479.672 894.293 478.59 895.41 479.016 896.387 479.074 Z M896.387 479.086" fill="#0cc0df" fill-opacity="1" stroke="none"/>
 <path id="Trazado-7" d="M594.996 470.07 C600.73 470.242 606.465 470.496 612.199 470.668 613.625 470.715 615.055 470.637 616.48 470.555 617.527 470.496 618.59 470.461 619.555 470.898 619.992 471.094 620.406 471.488 620.684 471.891 620.879 472.18 620.961 472.648 620.879 473.008 620.801 473.41 620.352 473.48 619.957 473.445 618.922 473.352 617.887 473.285 616.852 473.168 609.09 472.305 601.316 471.648 593.523 471.188 593.18 471.164 592.844 470.91 592.477 470.75 593.18 469.781 594.156 470.047 594.996 470.07 Z M594.996 470.07" fill="#0cc0df" fill-opacity="1" stroke="none"/>
 <path id="Trazado-8" d="M436.672 420.262 C435.82 419.883 435.234 420.309 434.625 420.887 433.75 421.715 433.301 422.785 432.781 423.82 432.563 424.258 432.988 424.766 433.496 424.867 434.66 425.109 435.707 424.109 436.871 424.594 437.504 425.789 438.422 426.469 439.875 426.422 441.277 426.387 442.406 425.938 443.133 424.707 443.305 424.406 443.422 423.914 443.281 423.648 443.156 423.395 442.672 423.234 442.34 423.211 441.855 423.176 441.258 423.59 440.91 423.094 440.555 422.59 440.277 421.969 440.172 421.355 440.082 420.816 440.473 420.355 441.094 420.426 441.453 420.457 441.785 420.746 442.141 420.887 442.477 421.012 442.914 421.355 443.109 420.828 443.215 420.539 443.016 420.113 442.879 419.781 442.637 419.168 442.352 418.676 441.477 418.918 440.289 419.238 438.883 418.906 438.055 420.25 437.746 420.758 437.145 420.469 436.672 420.25 Z M436.961 424.559 C437.723 424.098 438.551 423.809 439.438 423.926 439.828 423.969 440.07 424.363 439.934 424.789 439.863 424.984 439.551 425.273 439.414 425.238 438.586 425.055 437.777 424.801 436.949 424.559 Z M436.961 424.559" fill="#0cc0df" fill-opacity="1" stroke="none"/>
 <path id="Trazado-9" d="M444.145 417.016 C444.145 417.016 444.145 416.98 444.145 416.957 444.168 416.957 444.18 416.957 444.203 416.957 444.203 416.98 444.191 416.992 444.191 417.016 444.18 417.016 444.156 417.016 444.145 417.016 Z M444.145 417.016" fill="#0cc0df" fill-opacity="1" stroke="none"/>
 <path id="Trazado-10" d="M449.719 412.363 C449.719 412.363 449.719 412.363 449.707 412.375 449.684 412.352 449.648 412.344 449.613 412.32 449.648 412.32 449.672 412.32 449.707 412.32 449.707 412.344 449.707 412.352 449.707 412.375 Z M449.719 412.363" fill="#0cc0df" fill-opacity="1" stroke="none"/>
 <path id="Trazado-11" d="M453.094 414.805 C454.129 415.129 454.531 418.145 453.781 418.848 453.52 419.102 453.148 419.375 452.805 419.41 452.043 419.492 451.273 419.41 450.547 419.41 450.363 418.422 451.066 418.098 451.375 417.57 451.582 417.223 451.676 416.785 451.332 416.555 451.043 416.371 450.523 416.258 450.238 416.395 448.258 417.328 446.414 418.582 444.25 419.09 443.465 418.375 444.008 417.695 444.18 417.016 444.988 416.809 445.828 416.879 446.461 416.004 447.402 414.703 448.602 413.574 449.695 412.375 450.258 412.883 450.859 413.25 451.676 413.238 452.633 413.238 452.137 414.52 453.082 414.805 Z M453.094 414.805" fill="#0cc0df" fill-opacity="1" stroke="none"/>
 <path id="Trazado-12" d="M478.57 349.039 C477.848 349.211 476.949 349.039 476.453 349.789 476.109 350.316 475.797 350.559 475.289 350.031 474.922 349.641 474.691 349.168 474.816 348.625 475.129 347.266 474.566 346.496 472.977 346.16 472.551 346.07 472.32 345.746 472.32 345.32 472.32 344.859 472.652 344.676 473.078 344.664 473.207 344.664 473.344 344.641 473.473 344.641 473.734 344.629 473.988 344.617 474.633 344.598 474.773 344.641 475.266 344.758 475.715 344.965 476.59 345.355 477.422 345.551 478.238 344.816 478.652 344.434 479.203 344.551 479.723 344.605 480.898 344.723 481.301 345.297 481.059 346.379 480.746 347.785 480 348.695 478.559 349.051 Z M478.57 349.039" fill="#0cc0df" fill-opacity="1" stroke="none"/>
 <path id="Trazado-13" d="M546.742 338.977 C548.699 339.402 550.785 339.094 552.648 339.98 552.836 340.07 553.02 340.371 553.031 340.59 553.031 340.773 552.824 341.117 552.66 341.141 550.648 341.465 548.621 341.754 546.523 342.051 546.34 342.016 546.051 342.051 545.855 341.914 545.441 341.637 544.992 341.336 544.75 340.922 544.648 340.738 544.949 340.199 545.199 339.969 545.66 339.555 546.305 338.887 546.742 338.977 Z M546.742 338.977" fill="#0cc0df" fill-opacity="1" stroke="none"/>
 <path id="Trazado-14" d="M438.414 433.422 C437.617 431.813 438.93 431.086 439.816 430.246 439.977 430.098 440.566 430.281 440.875 430.441 441.234 430.637 441.43 431.086 441.223 431.441 440.969 431.867 440.543 432.203 440.195 432.57 441.371 433.492 442.258 433.387 442.867 431.914 442.996 431.617 443.477 431.418 443.836 431.648 443.961 431.73 443.984 432.191 443.883 432.34 442.891 433.617 443.215 434.609 444.363 435.598 444.895 436.047 444.617 436.637 443.961 436.648 443.328 436.648 442.684 436.59 442.039 436.566 440.887 436.508 441.359 435.91 441.578 435.313 441.809 434.645 441.383 434.367 440.785 434.344 439.277 434.285 437.859 435.473 436.246 434.68 436.559 433.516 437.801 434 438.422 433.422 Z M438.414 433.422" fill="#0cc0df" fill-opacity="1" stroke="none"/>
 <path id="Trazado-15" d="M470.5 450.418 C471.617 449.922 472.816 450.246 473.977 450.141 474.359 450.105 474.727 450.246 474.797 450.715 474.863 451.188 474.531 451.535 474.184 451.582 472.652 451.801 471.109 451.926 469.625 452.074 468.484 451.145 467.609 452.293 466.633 452.27 466.309 452.27 465.859 451.961 465.734 451.672 465.563 451.293 465.906 450.934 466.32 450.992 467.785 451.199 469.164 451.016 470.512 450.418 Z M470.5 450.418" fill="#0cc0df" fill-opacity="1" stroke="none"/>
 <path id="Trazado-16" d="M898.531 346.805 C899.531 347.555 900.844 347.336 901.789 348.039 902.836 348.809 903.723 347.289 904.734 347.922 905.047 348.117 905.52 348.164 905.484 348.648 905.473 348.844 905.242 349.086 905.047 349.191 903.469 349.996 901.926 350.594 900.512 348.82 899.59 347.672 898.715 348.359 897.906 349.051 897.793 348.59 897.656 348.129 897.621 347.66 897.586 347.059 898.082 346.484 898.52 346.805 Z M898.531 346.805" fill="#0cc0df" fill-opacity="1" stroke="none"/>
 <path id="Trazado-17" d="M449.027 364.965 C447.957 364.977 447.336 364.527 447.395 363.789 447.461 362.789 448.246 361.762 448.879 361.82 449.867 361.922 450.996 362.891 451.02 363.676 451.055 364.48 450.328 364.941 449.016 364.965 Z M449.027 364.965" fill="#0cc0df" fill-opacity="1" stroke="none"/>
 <path id="Trazado-18" d="M441.117 417.027 C440.566 416.926 440.141 416.59 440.012 416.07 439.945 415.762 440.07 415.277 440.289 415.047 440.703 414.609 441.289 414.738 441.672 415.129 442.754 416.246 442.359 415.059 442.453 414.645 442.625 413.875 443.168 413.586 443.883 413.656 444.32 413.699 445.215 413.793 444.734 414.438 444.113 415.266 444.332 416.129 444.156 416.957 443.156 417.211 442.141 417.199 441.129 417.027 Z M441.117 417.027" fill="#0cc0df" fill-opacity="1" stroke="none"/>
 <path id="Trazado-19" d="M928.074 346.242 C926.691 346.367 925.414 346 924.273 345.219 924.195 345.16 924.195 344.988 924.16 344.859 924.344 344.699 924.492 344.445 924.711 344.387 925.297 344.227 926.105 344.355 926.473 343.996 927.234 343.273 927.531 343.699 927.867 344.297 928.109 344.734 928.34 345.195 928.477 345.68 928.523 345.828 928.234 346.219 928.074 346.242 Z M928.074 346.242" fill="#0cc0df" fill-opacity="1" stroke="none"/>
 <path id="Trazado-20" d="M464.859 351.883 C464.848 352.113 464.305 352.473 463.996 352.484 463.695 352.496 463.258 352.219 463.086 351.941 462.5 351.031 462.602 350.305 463.316 349.66 463.789 349.234 464.293 348.844 464.801 348.453 464.859 348.406 465.043 348.523 465.215 348.578 465.688 349.719 464.938 350.777 464.859 351.883 Z M464.859 351.883" fill="#0cc0df" fill-opacity="1" stroke="none"/>
 <path id="Trazado-21" d="M467.992 342.57 C467.645 342.707 467.379 343.043 467.047 343.25 466.516 343.57 466 344.066 465.32 343.676 464.895 343.434 465.32 341.762 465.965 341.742 467.313 341.695 467.633 340.313 468.68 339.922 468.844 340.992 469.406 342.039 467.992 342.582 Z M467.992 342.57" fill="#0cc0df" fill-opacity="1" stroke="none"/>
 <path id="Trazado-22" d="M943.547 465.488 C942.832 465.293 941.938 465.121 941.105 464.797 940.863 464.707 940.691 464.141 940.703 463.809 940.715 463.383 941.117 463.176 941.531 463.324 942.5 463.668 943.469 464.039 944.41 464.453 944.574 464.52 944.699 464.902 944.652 465.098 944.617 465.258 944.32 465.387 944.113 465.488 944.008 465.535 943.859 465.488 943.547 465.488 Z M943.547 465.488" fill="#0cc0df" fill-opacity="1" stroke="none"/>
 <path id="Trazado-23" d="M959.078 470.105 C960.691 470.43 962.383 470.176 964.285 471.016 961.902 472.211 960.07 470.855 958.137 470.832 958.043 469.863 958.641 470.012 959.09 470.105 Z M959.078 470.105" fill="#0cc0df" fill-opacity="1" stroke="none"/>
 <path id="Trazado-24" d="M533.539 339.609 C533.168 338.941 532.684 338.332 532.258 337.688 534.457 336.664 534.711 336.73 535.07 338.645 535.184 339.289 535.426 339.816 535.793 340.324 534.941 340.461 534.09 340.625 533.539 339.609 Z M533.539 339.609" fill="#0cc0df" fill-opacity="1" stroke="none"/>
 <path id="Trazado-25" d="M535.922 340.301 L535.828 340.395 C535.828 340.395 535.805 340.348 535.793 340.324 535.84 340.324 535.887 340.313 535.922 340.301 Z M535.922 340.301" fill="#0cc0df" fill-opacity="1" stroke="none"/>
 <path id="Trazado-26" d="M493.402 346.461 C493.16 346.402 492.758 346.391 492.469 346.207 491.836 345.805 491.246 345.332 490.684 344.836 490.547 344.711 490.477 344.355 490.547 344.168 490.613 343.996 490.902 343.836 491.121 343.801 492.191 343.676 493.066 344.297 494.012 344.617 494.379 344.746 494.715 345 494.586 345.414 494.438 345.918 494.023 346.23 493.391 346.461 Z M493.402 346.461" fill="#0cc0df" fill-opacity="1" stroke="none"/>
 <path id="Trazado-27" d="M443.789 394.805 C443.871 394.598 444.113 394.449 444.273 394.266 444.398 394.242 444.582 394.16 444.629 394.219 445.262 395.004 445.93 395.727 446.887 396.141 446.922 396.152 446.781 396.949 446.539 397.121 445.563 397.824 444.941 396.777 444.203 396.465 443.535 396.188 443.535 395.453 443.789 394.805 Z M443.789 394.805" fill="#0cc0df" fill-opacity="1" stroke="none"/>
 <path id="Trazado-28" d="M469.324 351.227 C468.879 351.203 468.441 350.711 468.406 350.156 468.383 349.742 468.691 349.375 469.098 349.453 470.41 349.742 471.469 348.809 472.988 348.648 472.285 350.789 470.938 351.309 469.316 351.215 Z M469.324 351.227" fill="#0cc0df" fill-opacity="1" stroke="none"/>
 <path id="Trazado-29" d="M432.125 389.973 C432.055 389.797 432.195 389.477 432.332 389.293 432.598 388.934 432.965 388.969 433.348 389.117 434.738 389.66 434.602 391.273 435.395 392.25 433.59 392.297 432.691 391.328 432.125 389.973 Z M432.125 389.973" fill="#0cc0df" fill-opacity="1" stroke="none"/>
 <path id="Trazado-30" d="M812.234 471.809 C812.051 471.258 812.547 470.867 813.535 470.855 814.434 470.844 815.344 470.762 816.125 471.371 815.805 472.66 814.805 472.867 813.719 472.813 813.086 472.777 812.465 472.547 812.223 471.809 Z M812.234 471.809" fill="#0cc0df" fill-opacity="1" stroke="none"/>
 <path id="Trazado-31" d="M932.621 483.809 C930.906 484.016 929.156 484.395 927.152 483.566 928.789 483.195 930.609 483.277 932.621 483.809 Z M932.621 483.809" fill="#0cc0df" fill-opacity="1" stroke="none"/>
 <path id="Trazado-32" d="M537.313 342.66 C536.105 342.363 535.703 341.543 535.91 340.383 536.52 340.383 537.129 340.359 537.738 340.383 538.246 340.406 538.844 340.43 538.914 341.098 538.949 341.441 538.832 341.855 538.66 342.168 538.375 342.684 537.844 342.789 537.301 342.648 Z M537.313 342.66" fill="#0cc0df" fill-opacity="1" stroke="none"/>
 <path id="Trazado-33" d="M535.922 340.301 C535.922 340.301 535.922 340.359 535.922 340.395 535.898 340.395 535.863 340.395 535.84 340.395 535.84 340.395 535.934 340.301 535.934 340.301 Z M535.922 340.301" fill="#0cc0df" fill-opacity="1" stroke="none"/>
 <path id="Trazado-34" d="M635.074 326.633 C635.02 326.164 635.387 325.945 635.754 325.875 636.25 325.77 636.781 325.75 637.031 326.359 637.379 327.211 637.172 328.063 637 328.902 635.5 328.902 635.227 327.797 635.074 326.633 Z M635.074 326.633" fill="#0cc0df" fill-opacity="1" stroke="none"/>
 <path id="Trazado-35" d="M637.012 328.914 C637.012 328.914 637.055 328.926 637.078 328.926 637.078 328.926 636.988 329.008 636.988 329.008 636.988 328.973 637 328.938 637.012 328.914 Z M637.012 328.914" fill="#0cc0df" fill-opacity="1" stroke="none"/>
 <path id="Trazado-36" d="M936.824 346.805 C936.652 346.703 936.488 346.367 936.512 346.16 936.629 345.055 937.824 344.398 938.758 344.93 938.941 345.035 939.012 345.344 939.125 345.551 939.012 346.438 937.551 347.254 936.824 346.805 Z M936.824 346.805" fill="#0cc0df" fill-opacity="1" stroke="none"/>
 <path id="Trazado-37" d="M916.723 344.16 C916.043 344.02 915.281 343.594 915.074 342.754 914.973 342.34 915.168 342.027 915.57 341.867 916.203 341.613 916.813 341.809 917.402 342.027 917.77 342.168 918.023 342.43 917.734 343.008 917.445 343.316 917.469 344.309 916.711 344.148 Z M916.723 344.16" fill="#0cc0df" fill-opacity="1" stroke="none"/>
 <path id="Trazado-38" d="M446.621 405.824 C446.816 405.102 447.414 404.582 448.152 404.434 448.543 404.352 448.809 404.707 448.797 405.156 448.773 406.172 448.383 406.527 447.438 406.422 447.059 406.355 446.52 406.184 446.621 405.824 Z M446.621 405.824" fill="#0cc0df" fill-opacity="1" stroke="none"/>
 <path id="Trazado-39" d="M951.148 354.016 C950.824 353.875 950.469 353.738 950.109 353.59 949.535 353.324 948.754 353.012 949.211 352.277 949.547 351.734 950.375 351.793 950.984 352.125 951.309 352.297 951.586 352.609 951.781 352.922 951.895 353.094 951.871 353.438 951.77 353.633 951.676 353.809 951.398 353.887 951.16 354.027 Z M951.148 354.016" fill="#0cc0df" fill-opacity="1" stroke="none"/>
 <path id="Trazado-40" d="M998.766 475.473 C999.148 475.539 999.41 475.918 999.297 476.313 999.16 476.785 998.699 476.738 998.34 476.609 997.641 476.355 996.949 476.035 996.188 475.711 997.074 475 997.949 475.32 998.766 475.473 Z M998.766 475.473" fill="#0cc0df" fill-opacity="1" stroke="none"/>
 <path id="Trazado-41" d="M665.344 326.543 C664.77 326.785 664.414 326.348 664.078 326 663.801 325.715 663.688 325.195 664.055 325.047 664.688 324.781 665.402 324.723 666.094 324.633 666.195 324.621 666.348 324.953 666.473 325.137 666.254 325.727 665.965 326.289 665.355 326.543 Z M665.344 326.543" fill="#0cc0df" fill-opacity="1" stroke="none"/>
 <path id="Trazado-42" d="M453.113 434.379 C453.137 434.484 453.094 434.703 453.012 434.734 452.09 435.16 451.168 435.555 450.316 435.934 450.086 435.785 449.902 435.727 449.891 435.645 449.867 435.438 449.844 435.148 449.961 435.012 450.719 434.066 451.906 434.484 452.863 434.137 452.918 434.113 453.094 434.285 453.113 434.391 Z M453.113 434.379" fill="#0cc0df" fill-opacity="1" stroke="none"/>
 <path id="Trazado-43" d="M940.613 343.617 C940.035 343.469 939.301 343.328 939.242 342.57 939.219 342.191 939.633 341.914 940.059 341.926 940.75 341.938 941.293 342.191 941.383 342.938 941.293 343.398 941.016 343.723 940.613 343.617 Z M940.613 343.617" fill="#0cc0df" fill-opacity="1" stroke="none"/>
 <path id="Trazado-44" d="M444.813 364.848 C444.516 364.988 444.273 364.918 444.191 364.594 444.102 364.238 443.996 363.859 443.996 363.488 443.996 362.984 444.043 362.406 444.699 362.328 445.414 362.234 445.527 362.855 445.609 363.328 445.758 364.133 445.426 364.676 444.813 364.859 Z M444.813 364.848" fill="#0cc0df" fill-opacity="1" stroke="none"/>
 <path id="Trazado-45" d="M446.887 411.246 C446.367 411.422 445.906 411.352 445.711 410.742 445.676 410.625 445.664 410.441 445.723 410.371 446.344 409.773 447.047 409.797 447.785 410.133 447.863 410.164 447.91 410.305 447.969 410.395 447.898 411.063 447.336 411.086 446.875 411.238 Z M446.887 411.246" fill="#0cc0df" fill-opacity="1" stroke="none"/>
 <path id="Trazado-46" d="M808.492 471.719 C808.469 471.117 808.863 470.809 809.402 470.703 809.969 470.59 810.555 470.797 810.59 471.348 810.645 472.18 809.793 472.145 809.289 472.375 808.816 472.375 808.516 472.156 808.492 471.719 Z M808.492 471.719" fill="#0cc0df" fill-opacity="1" stroke="none"/>
 <g id="group">
  <path id="Trazado-47" d="M670.758 324.125 C670.594 323.953 670.457 323.676 670.457 323.457 670.469 323.031 670.789 322.859 671.207 322.813 671.734 322.754 672.23 322.848 672.621 323.215 672.781 323.363 672.816 323.641 672.91 323.848 672.781 324.043 672.691 324.367 672.508 324.438 671.883 324.676 671.25 324.676 670.758 324.125 Z M670.758 324.125" fill="#0cc0df" fill-opacity="1" stroke="none"/>
 </g>
 <path id="Trazado-48" d="M967.359 471.578 C967.449 471.051 967.828 470.668 968.383 470.648 968.945 470.625 969.305 470.957 969.395 471.531 969.5 472.109 969.188 472.57 968.672 472.617 968.047 472.672 967.266 472.098 967.348 471.578 Z M967.359 471.578" fill="#0cc0df" fill-opacity="1" stroke="none"/>
 <path id="Trazado-49" d="M948.535 465.34 C948.59 465.234 948.719 465.133 948.832 465.109 949.086 465.063 949.352 465.027 949.594 465.074 949.996 465.156 950.328 465.406 950.191 465.855 950.145 466.02 949.766 466.063 949.535 466.168 949.281 466.098 949.027 466.043 948.785 465.961 948.477 465.855 948.371 465.625 948.543 465.352 Z M948.535 465.34" fill="#0cc0df" fill-opacity="1" stroke="none"/>
 <path id="Trazado-50" d="M780.25 474.848 C780.504 475.035 780.805 475.137 780.859 475.32 780.906 475.48 780.734 475.863 780.574 475.918 780.227 476.047 779.824 476.094 779.457 476.07 779.227 476.059 778.996 475.863 778.777 475.758 778.914 475.551 779.02 475.273 779.215 475.172 779.547 475 779.93 474.941 780.262 474.848 Z M780.25 474.848" fill="#0cc0df" fill-opacity="1" stroke="none"/>
 <path id="Trazado-51" d="M461.242 451.246 C461.348 451.719 461.383 452.215 461.336 452.695 461.324 452.848 460.992 453.055 460.793 453.078 460.633 453.09 460.344 452.883 460.301 452.719 460.172 452.246 460.148 451.754 460.094 451.27 460.219 451.074 460.301 450.797 460.473 450.715 460.945 450.508 461.164 450.891 461.23 451.246 Z M461.242 451.246" fill="#0cc0df" fill-opacity="1" stroke="none"/>
 <path id="Trazado-52" d="M466.195 443.809 C466.297 444.211 465.977 444.43 465.387 444.441 465.227 444.34 464.871 444.211 464.711 443.957 464.5 443.625 465.148 442.922 465.551 443.082 465.824 443.199 466.125 443.52 466.207 443.809 Z M466.195 443.809" fill="#0cc0df" fill-opacity="1" stroke="none"/>
 <path id="Trazado-53" d="M970.398 472.234 C970.34 472.168 970.363 472.027 970.352 471.914 970.512 471.348 970.938 471.105 971.469 471.094 971.688 471.094 972.008 471.211 972.102 471.371 972.309 471.73 972.148 472.109 971.758 472.234 971.32 472.375 970.836 472.777 970.398 472.234 Z M970.398 472.234" fill="#0cc0df" fill-opacity="1" stroke="none"/>
</svg>
